<svg width="176" height="36" viewBox="0 0 176 36" fill="none" xmlns="http://www.w3.org/2000/svg">
<path fill-rule="evenodd" clip-rule="evenodd" d="M28.6471 18C28.6471 25.0877 22.7335 30.8333 15.4386 30.8333C8.14369 30.8333 2.23001 25.0877 2.23001 18C2.23001 10.9123 8.14369 5.16666 15.4386 5.16666C22.7335 5.16666 28.6471 10.9123 28.6471 18ZM30.8772 18C30.8772 26.2843 23.9651 33 15.4386 33C6.9121 33 0 26.2843 0 18C0 9.71573 6.9121 3 15.4386 3C23.9651 3 30.8772 9.71573 30.8772 18ZM23.9565 11.2759C23.9565 12.1329 23.2415 12.8276 22.3594 12.8276C21.4774 12.8276 20.7623 12.1329 20.7623 11.2759C20.7623 10.4189 21.4774 9.72418 22.3594 9.72418C23.2415 9.72418 23.9565 10.4189 23.9565 11.2759ZM10.7946 19.209C11.4818 21.7009 14.1181 23.1797 16.6828 22.512C19.2476 21.8443 20.7696 19.2829 20.0824 16.791C19.3952 14.2991 16.7589 12.8203 14.1941 13.488C11.6294 14.1557 10.1073 16.7171 10.7946 19.209ZM8.6405 19.7698C9.64649 23.4175 13.5056 25.5823 17.2599 24.6049C21.0144 23.6274 23.2424 19.878 22.2364 16.2302C21.2304 12.5825 17.3714 10.4177 13.6169 11.3952C9.86255 12.3726 7.63451 16.122 8.6405 19.7698Z" fill="url(#paint0_linear_1_6)"/>
<path d="M41.624 23.192C41.08 23.192 40.5947 23.1653 40.168 23.112C39.752 23.0587 39.368 22.9733 39.016 22.856C38.6747 22.7387 38.328 22.5893 37.976 22.408V20.312C38.424 20.6747 38.9467 20.9627 39.544 21.176C40.152 21.3787 40.7707 21.48 41.4 21.48C41.976 21.48 42.408 21.368 42.696 21.144C42.9947 20.9093 43.144 20.5733 43.144 20.136C43.144 19.8053 43.0213 19.5387 42.776 19.336C42.5413 19.1333 42.2267 18.9573 41.832 18.808C41.4373 18.6587 41.0053 18.504 40.536 18.344C40.2053 18.2267 39.88 18.0987 39.56 17.96C39.2507 17.8107 38.968 17.624 38.712 17.4C38.4667 17.176 38.2693 16.8987 38.12 16.568C37.9707 16.2267 37.896 15.8107 37.896 15.32C37.896 14.9253 37.9707 14.536 38.12 14.152C38.2693 13.768 38.4987 13.4267 38.808 13.128C39.1173 12.8187 39.5173 12.5733 40.008 12.392C40.4987 12.2107 41.0853 12.12 41.768 12.12C42.1947 12.12 42.568 12.1467 42.888 12.2C43.2187 12.2533 43.5333 12.3333 43.832 12.44C44.1307 12.5467 44.44 12.68 44.76 12.84V14.936C44.504 14.7547 44.232 14.584 43.944 14.424C43.656 14.2533 43.3467 14.1147 43.016 14.008C42.696 13.9013 42.3493 13.8427 41.976 13.832C41.592 13.8213 41.2613 13.864 40.984 13.96C40.7067 14.056 40.4933 14.2 40.344 14.392C40.1947 14.584 40.12 14.8133 40.12 15.08C40.12 15.4107 40.2107 15.6773 40.392 15.88C40.5733 16.072 40.8293 16.232 41.16 16.36C41.4907 16.488 41.8693 16.6213 42.296 16.76C42.712 16.888 43.1013 17.032 43.464 17.192C43.8373 17.3413 44.1627 17.5333 44.44 17.768C44.728 18.0027 44.952 18.2907 45.112 18.632C45.2827 18.9733 45.368 19.3893 45.368 19.88C45.368 20.4773 45.2293 21.0267 44.952 21.528C44.6747 22.0293 44.2587 22.4347 43.704 22.744C43.16 23.0427 42.4667 23.192 41.624 23.192ZM47.565 23V11.64H49.597V16.328L48.845 15.848C49.2717 15.5173 49.757 15.2507 50.301 15.048C50.845 14.8453 51.389 14.744 51.933 14.744C52.541 14.744 53.069 14.8453 53.517 15.048C53.965 15.2507 54.3117 15.5813 54.557 16.04C54.813 16.488 54.941 17.096 54.941 17.864V23H52.909V18.216C52.909 17.6187 52.765 17.176 52.477 16.888C52.1997 16.5893 51.7783 16.44 51.213 16.44C50.925 16.44 50.637 16.4827 50.349 16.568C50.061 16.6533 49.8103 16.76 49.597 16.888L49.581 23H47.565ZM64.7264 17.624V23H62.7104V17.976C62.7104 17.7733 62.6837 17.5813 62.6304 17.4C62.577 17.208 62.4864 17.0427 62.3584 16.904C62.2304 16.7547 62.0544 16.6427 61.8304 16.568C61.6064 16.4827 61.3184 16.44 60.9664 16.44C60.6997 16.44 60.4384 16.4667 60.1824 16.52C59.937 16.5733 59.7184 16.6427 59.5264 16.728V23H57.4944V15.608C57.7184 15.5013 57.985 15.3947 58.2944 15.288C58.6037 15.1813 58.9397 15.0907 59.3024 15.016C59.665 14.9307 60.0277 14.8667 60.3904 14.824C60.7637 14.7707 61.1157 14.744 61.4464 14.744C62.193 14.744 62.8064 14.8453 63.2864 15.048C63.7664 15.24 64.1237 15.5493 64.3584 15.976C64.6037 16.392 64.7264 16.9413 64.7264 17.624ZM62.5504 16.088C62.8917 15.8 63.281 15.56 63.7184 15.368C64.1557 15.1653 64.6144 15.0107 65.0944 14.904C65.5744 14.7973 66.033 14.744 66.4704 14.744C67.217 14.744 67.8304 14.8453 68.3104 15.048C68.7904 15.24 69.1477 15.5493 69.3824 15.976C69.6277 16.392 69.7504 16.9413 69.7504 17.624V23H67.7344V17.976C67.7344 17.7733 67.7077 17.5813 67.6544 17.4C67.601 17.208 67.5104 17.0427 67.3824 16.904C67.2544 16.7547 67.0784 16.6427 66.8544 16.568C66.6304 16.4827 66.3424 16.44 65.9904 16.44C65.7237 16.44 65.4624 16.4773 65.2064 16.552C64.961 16.6267 64.7424 16.7387 64.5504 16.888L62.5504 16.088ZM72.3624 23V15.016H74.3944L74.4104 23H72.3624ZM72.3144 13.736V12.072H74.4424V13.736H72.3144ZM80.7214 23.24C80.1667 23.24 79.6387 23.176 79.1374 23.048C78.636 22.92 78.1934 22.696 77.8094 22.376C77.4254 22.056 77.1214 21.6133 76.8974 21.048C76.684 20.4827 76.5774 19.7627 76.5774 18.888C76.5774 17.5973 76.892 16.5787 77.5214 15.832C78.1507 15.0853 79.1054 14.712 80.3854 14.712C80.5667 14.712 80.8014 14.7333 81.0894 14.776C81.3774 14.8187 81.6707 14.8933 81.9694 15C82.2787 15.096 82.5454 15.2507 82.7694 15.464L82.3214 16.104V11.592H84.3214V21.112C84.3214 21.4747 84.2147 21.7893 84.0014 22.056C83.7987 22.3227 83.5214 22.5467 83.1694 22.728C82.8174 22.8987 82.428 23.0267 82.0014 23.112C81.5747 23.1973 81.148 23.24 80.7214 23.24ZM80.7854 21.512C81.2227 21.512 81.5854 21.4587 81.8734 21.352C82.172 21.2453 82.3214 21.0907 82.3214 20.888V16.792C82.0867 16.6533 81.836 16.552 81.5694 16.488C81.3027 16.424 81.0467 16.392 80.8014 16.392C80.3107 16.392 79.9054 16.4827 79.5854 16.664C79.2654 16.8347 79.0254 17.112 78.8654 17.496C78.7054 17.8693 78.6254 18.3493 78.6254 18.936C78.6254 19.448 78.6894 19.896 78.8174 20.28C78.9454 20.664 79.164 20.968 79.4734 21.192C79.7934 21.4053 80.2307 21.512 80.7854 21.512ZM89.9642 23.256C89.1322 23.256 88.4976 23.0533 88.0602 22.648C87.6229 22.232 87.4042 21.6347 87.4042 20.856V16.536H86.1562V14.936H87.4042V12.712H89.5002V14.936H91.3722V16.536H89.5002V20.536C89.5002 20.8667 89.5642 21.112 89.6922 21.272C89.8202 21.432 90.0442 21.512 90.3642 21.512C90.5349 21.512 90.7109 21.4853 90.8922 21.432C91.0842 21.368 91.2442 21.2933 91.3722 21.208V22.968C91.1589 23.0747 90.9242 23.1493 90.6682 23.192C90.4229 23.2347 90.1882 23.256 89.9642 23.256ZM96.7232 23.24C95.9659 23.2187 95.3206 23.0533 94.7872 22.744C94.2539 22.4347 93.8432 21.9867 93.5552 21.4C93.2779 20.8027 93.1392 20.072 93.1392 19.208C93.1392 18.3013 93.2512 17.56 93.4752 16.984C93.6992 16.3973 94.0086 15.944 94.4032 15.624C94.8086 15.2933 95.2779 15.064 95.8112 14.936C96.3552 14.808 96.9312 14.744 97.5392 14.744C98.1686 14.744 98.7232 14.824 99.2032 14.984C99.6939 15.144 100.078 15.3787 100.355 15.688C100.643 15.9973 100.787 16.392 100.787 16.872V23.176C100.787 23.6667 100.707 24.1093 100.547 24.504C100.387 24.9093 100.142 25.256 99.8112 25.544C99.4912 25.832 99.0859 26.0507 98.5952 26.2C98.1046 26.36 97.5179 26.44 96.8352 26.44C96.2059 26.44 95.6566 26.392 95.1872 26.296C94.7179 26.2 94.3446 26.0933 94.0672 25.976V24.168C94.2272 24.232 94.4459 24.3067 94.7232 24.392C95.0112 24.488 95.3312 24.568 95.6832 24.632C96.0352 24.696 96.3872 24.728 96.7392 24.728C97.3046 24.728 97.7312 24.6533 98.0192 24.504C98.3179 24.3547 98.5206 24.1573 98.6272 23.912C98.7339 23.6667 98.7872 23.4 98.7872 23.112V21.848L99.2512 22.2C99.0699 22.4027 98.8459 22.584 98.5792 22.744C98.3232 22.8933 98.0352 23.0107 97.7152 23.096C97.4059 23.192 97.0752 23.24 96.7232 23.24ZM97.1552 21.672C97.4432 21.672 97.7259 21.64 98.0032 21.576C98.2912 21.5013 98.5526 21.3947 98.7872 21.256V17.288C98.7872 17.032 98.7179 16.8453 98.5792 16.728C98.4512 16.6 98.2752 16.5147 98.0512 16.472C97.8379 16.4187 97.6032 16.392 97.3472 16.392C96.7819 16.392 96.3392 16.5093 96.0192 16.744C95.7099 16.9787 95.4912 17.304 95.3632 17.72C95.2352 18.136 95.1712 18.6 95.1712 19.112C95.1712 19.8907 95.3419 20.5147 95.6832 20.984C96.0246 21.4427 96.5152 21.672 97.1552 21.672ZM103.266 23V15.72C103.416 15.624 103.677 15.496 104.05 15.336C104.434 15.176 104.877 15.0373 105.378 14.92C105.88 14.792 106.386 14.728 106.898 14.728C107.282 14.728 107.586 14.76 107.81 14.824C108.045 14.8773 108.226 14.9467 108.354 15.032V16.568C108.141 16.536 107.896 16.5093 107.618 16.488C107.352 16.4667 107.074 16.4613 106.786 16.472C106.509 16.472 106.237 16.4827 105.97 16.504C105.714 16.5253 105.49 16.552 105.298 16.584V23H103.266ZM113.204 23.24C112.756 23.24 112.329 23.1973 111.924 23.112C111.518 23.0267 111.156 22.888 110.836 22.696C110.516 22.4933 110.26 22.2213 110.068 21.88C109.886 21.528 109.796 21.0907 109.796 20.568C109.796 20.024 109.908 19.5653 110.132 19.192C110.356 18.808 110.681 18.52 111.108 18.328C111.545 18.1253 112.078 18.024 112.708 18.024C113.092 18.024 113.449 18.0613 113.78 18.136C114.11 18.2 114.409 18.2907 114.676 18.408C114.942 18.5253 115.161 18.6533 115.332 18.792L115.476 19.928C115.252 19.7787 114.964 19.6613 114.612 19.576C114.27 19.48 113.897 19.432 113.492 19.432C112.926 19.432 112.505 19.5227 112.228 19.704C111.95 19.8853 111.812 20.168 111.812 20.552C111.812 20.8187 111.886 21.0427 112.036 21.224C112.185 21.3947 112.377 21.528 112.612 21.624C112.846 21.7093 113.092 21.752 113.348 21.752C113.934 21.752 114.356 21.7147 114.612 21.64C114.878 21.5547 115.012 21.3787 115.012 21.112V17.928C115.012 17.4053 114.846 17.0267 114.516 16.792C114.185 16.5467 113.721 16.424 113.124 16.424C112.665 16.424 112.196 16.504 111.716 16.664C111.236 16.8133 110.846 17.0107 110.548 17.256V15.416C110.836 15.2347 111.268 15.0747 111.844 14.936C112.42 14.7973 113.038 14.728 113.7 14.728C113.977 14.728 114.27 14.7547 114.58 14.808C114.889 14.8613 115.182 14.9467 115.46 15.064C115.748 15.1813 116.009 15.3467 116.244 15.56C116.478 15.7627 116.665 16.024 116.804 16.344C116.942 16.6533 117.012 17.032 117.012 17.48V21.304C117.012 21.8053 116.852 22.2 116.532 22.488C116.212 22.7653 115.769 22.9573 115.204 23.064C114.638 23.1813 113.972 23.24 113.204 23.24ZM126.81 17.624V23H124.794V17.976C124.794 17.7733 124.767 17.5813 124.714 17.4C124.661 17.208 124.57 17.0427 124.442 16.904C124.314 16.7547 124.138 16.6427 123.914 16.568C123.69 16.4827 123.402 16.44 123.05 16.44C122.783 16.44 122.522 16.4667 122.266 16.52C122.021 16.5733 121.802 16.6427 121.61 16.728V23H119.578V15.608C119.802 15.5013 120.069 15.3947 120.378 15.288C120.687 15.1813 121.023 15.0907 121.386 15.016C121.749 14.9307 122.111 14.8667 122.474 14.824C122.847 14.7707 123.199 14.744 123.53 14.744C124.277 14.744 124.89 14.8453 125.37 15.048C125.85 15.24 126.207 15.5493 126.442 15.976C126.687 16.392 126.81 16.9413 126.81 17.624ZM124.634 16.088C124.975 15.8 125.365 15.56 125.802 15.368C126.239 15.1653 126.698 15.0107 127.178 14.904C127.658 14.7973 128.117 14.744 128.554 14.744C129.301 14.744 129.914 14.8453 130.394 15.048C130.874 15.24 131.231 15.5493 131.466 15.976C131.711 16.392 131.834 16.9413 131.834 17.624V23H129.818V17.976C129.818 17.7733 129.791 17.5813 129.738 17.4C129.685 17.208 129.594 17.0427 129.466 16.904C129.338 16.7547 129.162 16.6427 128.938 16.568C128.714 16.4827 128.426 16.44 128.074 16.44C127.807 16.44 127.546 16.4773 127.29 16.552C127.045 16.6267 126.826 16.7387 126.634 16.888L124.634 16.088Z" fill="white"/>
<defs>
<linearGradient id="paint0_linear_1_6" x1="15.4386" y1="3" x2="15.4386" y2="33" gradientUnits="userSpaceOnUse">
<stop stop-color="#877EFF"/>
<stop offset="0.461458" stop-color="#685DFF"/>
<stop offset="1" stop-color="#3121FF"/>
</linearGradient>
</defs>
</svg>
